<?xml version="1.0" encoding="UTF-8"?>
<svg version="1.1" xmlns="http://www.w3.org/2000/svg" width="800" height="800">
<path d="M0 0 C5.24838406 0.01136409 10.49656469 0.00463714 15.74494171 -0.00687122 C43.52350516 -0.05875295 71.03703033 0.30488192 98.56640625 4.44824219 C99.27844208 4.55334106 99.99047791 4.65843994 100.72409058 4.76672363 C161.56181307 13.77627314 236.7570166 27.74727031 282.7109375 71.54589844 C284.46346085 73.32537183 284.46346085 73.32537183 286.56640625 74.26074219 C286.56640625 74.92074219 286.56640625 75.58074219 286.56640625 76.26074219 C287.22640625 76.26074219 287.88640625 76.26074219 288.56640625 76.26074219 C291.1494229 78.69350025 293.32570656 81.51503631 295.56640625 84.26074219 C296.30890625 85.16695313 297.05140625 86.07316406 297.81640625 87.00683594 C298.57953125 87.9775 299.34265625 88.94816406 300.12890625 89.94824219 C300.83144531 90.83898437 301.53398438 91.72972656 302.2578125 92.64746094 C303.05032082 93.83689505 303.81666656 95.04389653 304.56640625 96.26074219 C305.06548038 97.05880758 305.56455451 97.85687296 306.0787521 98.67912215 C311.86020566 109.33488486 311.39369144 119.54996633 311.29466248 131.39704895 C311.29799861 133.64428161 311.30396983 135.89151162 311.31233555 138.13873118 C311.32764652 144.2918274 311.30567663 150.44430512 311.27745903 156.59733474 C311.25601183 162.56004792 311.26290368 168.52271086 311.2690156 174.48544458 C311.28052787 186.68543552 311.26404863 198.88523786 311.23135185 211.0851841 C311.19898952 223.18497736 311.17875673 235.28469005 311.17460823 247.38452721 C311.17420726 248.51613587 311.17420726 248.51613587 311.17379819 249.67060532 C311.17249575 253.50314228 311.17139686 257.33567927 311.17036927 261.16821631 C311.16265701 288.31296174 311.12639909 315.45760229 311.07397461 342.60229492 C311.02328647 368.86792028 310.98775028 395.13349998 310.97143555 421.39916992 C310.97092945 422.20637424 310.97042336 423.01357857 310.96990193 423.84524363 C310.96583613 430.34145741 310.9618388 436.83767123 310.95796248 443.33388513 C310.94068168 472.28490786 310.91197741 501.23592055 310.87997642 530.18693039 C310.87664147 533.20841582 310.87338035 536.22990132 310.87018666 539.25138691 C310.85176915 556.66146102 310.83006739 574.07152087 310.79698681 591.48157404 C310.79441146 592.84100149 310.79184056 594.20042895 310.78927422 595.55985641 C310.78801716 596.22569007 310.78676011 596.89152372 310.78546497 597.57753415 C310.7771341 602.11448128 310.77122242 606.65142723 310.76636124 611.18837929 C310.75183475 623.81032656 310.71737893 636.4315148 310.62018841 649.0531259 C310.57612724 655.09393658 310.57182631 661.13287423 310.6026202 667.17375148 C310.61408402 670.86292732 310.59313927 674.55141586 310.56364126 678.24046948 C310.55695137 679.91011318 310.56353238 681.57988043 310.5854901 683.24939314 C310.77113715 698.21662239 305.83465952 708.3803249 295.69140625 719.57324219 C295.17658691 720.15315918 294.66176758 720.73307617 294.13134766 721.33056641 C245.51699867 775.2914425 154.67513995 791.07888481 85.75390625 798.01074219 C84.04195068 798.18440308 84.04195068 798.18440308 82.29541016 798.36157227 C57.44027255 800.64241706 32.40412335 800.50415376 7.46704102 800.5559082 C3.67781293 800.56472525 -0.11104342 800.58554704 -3.90014648 800.61743164 C-41.4188171 800.92553202 -77.61274838 797.3933566 -114.43359375 790.26074219 C-115.11188232 790.12968079 -115.7901709 789.99861938 -116.48901367 789.86358643 C-153.62446459 782.64057395 -192.24102831 772.61284992 -225.58496094 754.26904297 C-227.63617783 753.15024665 -229.70930702 752.07919192 -231.78515625 751.00683594 C-253.29580582 739.71380248 -275.3523638 723.45244016 -286.43359375 701.26074219 C-286.95116916 700.25170985 -287.46874457 699.24267751 -288.00200409 698.20306844 C-289.94708814 693.59368908 -289.85244016 689.15934031 -289.81949711 684.21867847 C-289.82475622 683.21805625 -289.83001533 682.21743402 -289.83543381 681.18648991 C-289.84941942 677.82454522 -289.84201618 674.46298945 -289.83473206 671.10102844 C-289.84033572 668.66990392 -289.84723757 666.23878209 -289.85532802 663.80766457 C-289.86986876 658.51717859 -289.87504367 653.22680601 -289.87195969 647.93630981 C-289.86738477 640.06893371 -289.87987045 632.20164873 -289.89558356 624.33429035 C-289.9246014 609.46501642 -289.9330362 594.59577352 -289.93475474 579.72647462 C-289.93613326 568.24313761 -289.94230773 556.75981277 -289.95185661 545.27647972 C-289.95454924 541.97122756 -289.95721868 538.66597538 -289.95988125 535.3607232 C-289.96054439 534.53902894 -289.96120753 533.71733468 -289.96189077 532.8707406 C-289.98035447 509.75657019 -289.99219236 486.64240401 -289.99086094 463.5282259 C-289.9908142 462.65670308 -289.99076747 461.78518026 -289.99071931 460.88724766 C-289.99046999 456.46999492 -289.99017287 452.05274218 -289.98986519 447.63548944 C-289.98980536 446.75820579 -289.98974552 445.88092213 -289.98968387 444.97705412 C-289.98956256 443.20297219 -289.98943717 441.42889027 -289.9893077 439.65480834 C-289.98746959 412.05538797 -290.00998575 384.45607818 -290.05102539 356.85668945 C-290.09711363 325.84929933 -290.12292369 294.84198187 -290.12013572 263.83455533 C-290.11991183 260.52773138 -290.11976571 257.22090744 -290.11967278 253.91408348 C-290.11963781 253.09985928 -290.11960285 252.28563507 -290.11956683 251.44673741 C-290.11947453 238.34717186 -290.13862724 225.24770237 -290.16446957 212.14816538 C-290.18990842 198.98073028 -290.19286174 185.8134356 -290.17314161 172.64598951 C-290.16206044 164.8254147 -290.16753483 157.00526662 -290.19696863 149.18473708 C-290.21709861 143.34205259 -290.20579373 137.49970133 -290.18234896 131.65702 C-290.17773281 129.29565578 -290.18323465 126.93424533 -290.19992919 124.57293562 C-290.34897863 101.99396113 -290.34897863 101.99396113 -283.43359375 92.26074219 C-283.00739685 91.6088765 -282.58119995 90.95701082 -282.142088 90.28539163 C-246.89601882 38.64914634 -170.70863726 20.63142808 -113.14648438 9.70507812 C-102.52722198 7.7238257 -91.87338341 6.00148373 -81.18359375 4.44824219 C-80.50993774 4.3488736 -79.83628174 4.249505 -79.14221191 4.14712524 C-74.24829805 3.43347336 -69.34654073 2.82717577 -64.43359375 2.26074219 C-63.66954224 2.16718445 -62.90549072 2.07362671 -62.11828613 1.97723389 C-41.50333165 -0.46413356 -20.72291661 -0.04524081 0 0 Z M-191.43359375 87.26074219 C-192.43326172 88.14052734 -192.43326172 88.14052734 -193.453125 89.03808594 C-198.35283263 93.58707765 -201.91732814 98.1951505 -202.77734375 104.96777344 C-203.07046772 113.89584101 -200.44196879 119.79222863 -194.4296875 126.29199219 C-175.4779114 144.98415492 -147.57294846 153.06139099 -122.43359375 159.26074219 C-121.52077637 159.48713379 -120.60795898 159.71352539 -119.66748047 159.94677734 C-89.97912108 167.11554892 -58.90350481 170.8148265 -28.43359375 172.26074219 C-26.43487909 172.37111655 -24.43618094 172.48179017 -22.4375 172.59277344 C48.21030201 176.22401397 155.40111694 177.4026277 212.06640625 128.76074219 C218.06981212 123.11851683 222.59261846 117.08713876 222.94140625 108.63574219 C222.83230081 100.2952371 218.04399981 94.10691423 212.5546875 88.15917969 C199.96760049 76.14086086 182.78095204 69.676394 166.56640625 64.26074219 C165.7976416 64.0005127 165.02887695 63.7402832 164.23681641 63.47216797 C77.54332 34.53764017 -28.69905216 36.59896815 -191.43359375 87.26074219 Z M-48.875 373.04199219 C-65.49642305 393.96642324 -67.81883911 418.21036118 -66.1953125 444.05371094 C-63.810826 463.44271732 -52.59936022 481.82295802 -37.29296875 493.80761719 C-26.15273672 501.82643155 -14.98848111 506.61177053 -1.58764648 509.26171875 C7.64672583 511.25645338 13.4075403 516.641042 19.50390625 523.57324219 C20.5362052 524.72047684 21.57007076 525.86630369 22.60546875 527.01074219 C23.35618652 527.8421875 23.35618652 527.8421875 24.12207031 528.69042969 C26.1417158 530.88623086 28.25154715 532.98218615 30.37890625 535.07324219 C33.81230152 538.45669716 37.02513921 541.96777012 40.15625 545.63183594 C41.24269723 546.88681792 42.3926628 548.08699874 43.56640625 549.26074219 C46.63350726 549.44926242 49.60858473 549.5160768 52.67578125 549.49121094 C53.59417786 549.49075272 54.51257446 549.49029449 55.45880127 549.48982239 C57.41248864 549.48679474 59.36617348 549.47889327 61.31982422 549.46655273 C64.26278585 549.44856983 67.20542727 549.44604129 70.1484375 549.44628906 C80.33241885 549.42650741 90.41967593 549.20480093 100.56640625 548.26074219 C96.88566709 544.53220122 93.10985758 540.93228635 89.25390625 537.38574219 C88.67705078 536.854729 88.10019531 536.32371582 87.50585938 535.77661133 C81.21184503 529.99738519 74.76771131 524.4157257 68.25390625 518.88574219 C67.70259033 518.4170874 67.15127441 517.94843262 66.58325195 517.46557617 C63.85003795 515.15273391 61.09841754 512.87419927 58.28515625 510.65917969 C57.28484375 509.86769531 56.28453125 509.07621094 55.25390625 508.26074219 C54.35027344 507.55949219 53.44664062 506.85824219 52.515625 506.13574219 C51.87238281 505.51699219 51.22914063 504.89824219 50.56640625 504.26074219 C50.56640625 503.27074219 50.56640625 502.28074219 50.56640625 501.26074219 C51.28183594 501.01582031 51.99726563 500.77089844 52.734375 500.51855469 C67.82947654 493.81424752 81.31635733 476.37804858 87.50390625 461.33886719 C94.23290911 441.84455007 96.08840219 418.0624648 89.56640625 398.26074219 C89.21449219 397.16246094 88.86257813 396.06417969 88.5 394.93261719 C81.82171624 375.9777524 68.87236071 361.89838376 51.22265625 352.47558594 C17.70939463 336.83350167 -24.53576276 345.31473313 -48.875 373.04199219 Z M-167.74609375 352.07324219 C-168.39642578 352.40388672 -169.04675781 352.73453125 -169.71679688 353.07519531 C-182.21336405 359.5794026 -190.13222922 368.62760375 -194.43359375 382.26074219 C-197.52427027 393.25378153 -196.51179629 407.12015706 -191.43359375 417.26074219 C-182.58990787 432.55574907 -165.66574876 440.07006492 -150.18212891 446.94018555 C-136.19675188 453.29838801 -136.19675188 453.29838801 -133.43359375 460.26074219 C-132.87608846 464.64114093 -132.86281723 466.50530268 -135.55859375 470.07324219 C-141.97872176 474.9581222 -148.63174231 474.95444029 -156.43359375 474.26074219 C-166.48853824 472.56211778 -175.16451155 468.78856141 -184.17602539 464.17114258 C-185.3321936 463.58707642 -185.3321936 463.58707642 -186.51171875 462.99121094 C-187.53894043 462.45596802 -187.53894043 462.45596802 -188.58691406 461.90991211 C-190.62131105 460.98278591 -190.62131105 460.98278591 -193.43359375 462.26074219 C-193.48300757 467.61758068 -193.51931982 472.97428669 -193.54345703 478.33129883 C-193.55351866 480.15391348 -193.56716935 481.97651198 -193.58447266 483.79907227 C-193.60871396 486.41784653 -193.62007513 489.0364075 -193.62890625 491.65527344 C-193.63922882 492.47099319 -193.64955139 493.28671295 -193.66018677 494.12715149 C-193.66096235 498.03204974 -193.65010036 499.93598227 -191.43359375 503.26074219 C-166.43825624 512.56364264 -132.58646015 513.56769258 -108.15625 502.65136719 C-103.98763617 500.52220431 -100.20027764 498.02921585 -96.43359375 495.26074219 C-95.56734375 494.68324219 -94.70109375 494.10574219 -93.80859375 493.51074219 C-84.39241422 484.59015105 -80.00868371 473.32014042 -79.40234375 460.52636719 C-79.53041027 447.14341626 -83.85052583 437.67233085 -92.6640625 427.78027344 C-100.80957545 420.37003951 -110.15540898 415.75063448 -120.05859375 411.19824219 C-139.88868494 402.07810541 -139.88868494 402.07810541 -144.43359375 395.26074219 C-144.98544682 391.00358991 -144.98931824 389.02486337 -142.43359375 385.51074219 C-134.46008849 379.53061324 -127.02732682 379.78546355 -117.53710938 380.94238281 C-108.56919971 382.29964305 -99.93699692 385.25045097 -91.5078125 388.52636719 C-89.48610372 389.37199171 -89.48610372 389.37199171 -87.43359375 389.26074219 C-87.43359375 376.39074219 -87.43359375 363.52074219 -87.43359375 350.26074219 C-101.60916787 347.42562736 -114.49948464 346.07381496 -128.77880859 346.07543945 C-130.93086318 346.07324497 -133.08240983 346.05498393 -135.234375 346.03613281 C-146.73374835 345.9860613 -157.46223265 346.49537677 -167.74609375 352.07324219 Z M117.56640625 347.26074219 C117.56640625 399.73074219 117.56640625 452.20074219 117.56640625 506.26074219 C151.55640625 506.26074219 185.54640625 506.26074219 220.56640625 506.26074219 C220.56640625 494.71074219 220.56640625 483.16074219 220.56640625 471.26074219 C202.41640625 471.26074219 184.26640625 471.26074219 165.56640625 471.26074219 C165.56640625 430.34074219 165.56640625 389.42074219 165.56640625 347.26074219 C149.72640625 347.26074219 133.88640625 347.26074219 117.56640625 347.26074219 Z " fill="#00BCF2" transform="translate(389.43359375,-0.2607421875)"/>
<path d="M0 0 C1.75390625 1.14453125 1.75390625 1.14453125 3.3125 2.4375 C3.83714844 2.85386719 4.36179687 3.27023437 4.90234375 3.69921875 C13.94173888 12.46260182 16.395351 28.04409912 16.625 39.9375 C16.66560383 52.76229565 13.49492217 64.46245961 4.875 74.1875 C-2.70456307 80.84272611 -8.1774093 81.8698969 -18.0703125 81.77734375 C-24.92622229 81.133214 -30.2682355 78.28384751 -35 73.3125 C-45.7026333 59.35650942 -45.22962723 40.3234106 -43.2265625 23.5859375 C-41.22881092 14.49029208 -36.59846562 7.65502189 -29.59375 1.62890625 C-21.95475673 -3.14546454 -8.2525531 -3.73367936 0 0 Z " fill="#00BCF2" transform="translate(416.6875,387.5625)"/>
</svg>
